<?xml version="1.0" encoding="utf-8"?>
<!-- Generator: Adobe Illustrator 16.0.0, SVG Export Plug-In . SVG Version: 6.00 Build 0)  -->
<!DOCTYPE svg PUBLIC "-//W3C//DTD SVG 1.1//EN" "http://www.w3.org/Graphics/SVG/1.1/DTD/svg11.dtd">
<svg version="1.1" id="Layer_1" xmlns="http://www.w3.org/2000/svg" xmlns:xlink="http://www.w3.org/1999/xlink" x="0px" y="0px"
	 width="32px" height="32px" viewBox="0 0 32 32" enable-background="new 0 0 32 32" xml:space="preserve">
<g>
	<g>
		<path d="M25.677,25.661c0.167-0.461,0.07-0.998-0.297-1.373c-0.574-0.586-1.563-0.522-2.047,0.202
			c-0.29,0.434-0.287,1.021,0.008,1.454c0.357,0.525,0.985,0.697,1.521,0.515l1.67,1.36c0.319,0.26,0.741-0.159,0.485-0.481
			L25.677,25.661z"/>
	</g>
	<g>
		<path d="M29.647,20.681l0.168,0.168c0.296,0.296,0.776,0.296,1.072,0c0.296-0.296,0.296-0.776,0-1.072l-1.05-1.05
			c-0.296-0.297-0.776-0.297-1.073,0c-0.296,0.296-0.296,0.776,0,1.072l0.168,0.168l-0.334,0.334
			c-0.938-0.791-2.105-1.318-3.387-1.469v-1.037h0.791c0.418,0,0.759-0.339,0.759-0.758c0-0.419-0.34-0.759-0.759-0.759h-3.097
			c-0.419,0-0.758,0.34-0.758,0.759c0,0.419,0.339,0.758,0.758,0.758h0.79v1.037c-3.194,0.376-5.683,3.098-5.683,6.393
			c0,3.552,2.89,6.441,6.442,6.441c3.552,0,6.441-2.89,6.441-6.441c0-1.611-0.598-3.081-1.578-4.211L29.647,20.681z M29.377,25.224
			c0,2.715-2.208,4.925-4.924,4.925c-2.715,0-4.925-2.209-4.925-4.925c0-2.715,2.21-4.925,4.925-4.925
			C27.169,20.299,29.377,22.509,29.377,25.224z"/>
	</g>
	<g>
		<path d="M7.25,7.894c1.109,0,2.009-0.899,2.009-2.009V2.307c0-1.11-0.9-2.01-2.009-2.01c-1.11,0-2.01,0.899-2.01,2.01v3.578
			C5.241,6.995,6.141,7.894,7.25,7.894z"/>
	</g>
	<g>
		<path d="M21.579,7.894c1.109,0,2.01-0.899,2.01-2.009V2.307c0-1.11-0.9-2.01-2.01-2.01c-1.11,0-2.01,0.899-2.01,2.01v3.578
			C19.569,6.995,20.469,7.894,21.579,7.894z"/>
	</g>
	<g>
		<path d="M11.453,26.45v-6.077h5.922v3c0.601-2.294,2.27-4.174,4.494-5.009h-2.484v-5.997h6.098v3.015h0.519
			c0.659,0,1.225,0.391,1.49,0.951V4.096h-2.898v1.789c0,1.662-1.353,3.014-3.014,3.014c-1.662,0-3.014-1.352-3.014-3.014V4.096
			h-8.3v1.789c0,1.662-1.353,3.014-3.014,3.014c-1.662,0-3.015-1.352-3.015-3.014V4.096H1.337v24.364H17.88
			c-0.31-0.625-0.531-1.299-0.651-2.009H11.453z M11.453,12.368h5.922v5.997h-5.922V12.368z M9.443,26.45H3.347v-6.077h6.096V26.45z
			 M9.443,18.365H3.347v-5.997h6.096V18.365z"/>
	</g>
</g>
</svg>
